# xmcd
#
# Track frame offsets: 
#        150
#        13957
#        31740
#        46700
#        60712
#        76350
#        95615
#        111935
#        131085
#        148017
#        164432
#        181280
#
# Disc length: 2662 seconds
#
# Revision: 1
# Processed by: cddbd v1.5.2PL0 Copyright (c) Steve Scherf et al.
# Submitted via: ExactAudioCopy v1.0b4
#
DISCID=a00a640c
DTITLE=ハイ・ファイ・セット - Singles (Disc2)
DYEAR=1999
DGENRE=Folk
TTITLE0=風の街
TTITLE1=クリスタル・ナイト
TTITLE2=メモランダム
TTITLE3=個人的メッセージ
TTITLE4=恋の日記
TTITLE5=愛こそすべて
TTITLE6=少しだけまわり道
TTITLE7=レディー・グレイ
TTITLE8=あめりか物語
TTITLE9=夏の別離
TTITLE10=熱帯夜
TTITLE11=燃える秋
EXTD=
EXTT0=
EXTT1=
EXTT2=
EXTT3=
EXTT4=
EXTT5=
EXTT6=
EXTT7=
EXTT8=
EXTT9=
EXTT10=
EXTT11=
PLAYORDER=
